<?xml version="1.0" encoding="UTF-8" standalone="no"?>
<!DOCTYPE svg PUBLIC "-//W3C//DTD SVG 1.1//EN"
 "http://www.w3.org/Graphics/SVG/1.1/DTD/svg11.dtd">
<!-- Generated by graphviz version 2.40.1 (20161225.0304)
 -->
<!-- Title: workflow Pages: 1 -->
<svg width="1403pt" height="215pt"
 viewBox="0.00 0.00 1402.73 215.00" xmlns="http://www.w3.org/2000/svg" xmlns:xlink="http://www.w3.org/1999/xlink">
<g id="graph0" class="graph" transform="scale(1 1) rotate(0) translate(4 211)">
<title>workflow</title>
<polygon fill="#ffffff" stroke="transparent" points="-4,4 -4,-211 1398.7275,-211 1398.7275,4 -4,4"/>
<!-- place_draft -->
<g id="node1" class="node">
<title>place_draft</title>
<ellipse fill="#add8e6" stroke="#333333" cx="36" cy="-36" rx="36" ry="36"/>
<text text-anchor="middle" x="36" y="-33.9746" font-family="Arial" font-size="9.00" fill="#000000">draft</text>
</g>
<!-- place_draft&#45;&gt;place_draft -->
<g id="edge1" class="edge">
<title>place_draft&#45;&gt;place_draft</title>
<path fill="none" stroke="#333333" d="M23.25,-69.75C23.25,-81 27.5,-90 36,-90 43.1719,-90 47.3181,-83.5928 48.4387,-74.8329"/>
<polygon fill="#333333" stroke="#333333" points="50.191,-74.8477 48.75,-69.75 46.6975,-74.6336 50.191,-74.8477"/>
<text text-anchor="middle" x="36" y="-93.1491" font-family="Arial" font-size="9.00" fill="#000000">edit</text>
</g>
<!-- place_pending -->
<g id="node2" class="node">
<title>place_pending</title>
<ellipse fill="none" stroke="#333333" cx="175.0166" cy="-36" rx="36" ry="36"/>
<text text-anchor="middle" x="175.0166" y="-33.9746" font-family="Arial" font-size="9.00" fill="#000000">pending</text>
</g>
<!-- place_draft&#45;&gt;place_pending -->
<g id="edge2" class="edge">
<title>place_draft&#45;&gt;place_pending</title>
<path fill="none" stroke="#333333" d="M72.1621,-36C90.8401,-36 113.7283,-36 133.1676,-36"/>
<polygon fill="#333333" stroke="#333333" points="133.5527,-37.7501 138.5527,-36 133.5526,-34.2501 133.5527,-37.7501"/>
<text text-anchor="middle" x="105.5083" y="-39.1491" font-family="Arial" font-size="9.00" fill="#000000">activate</text>
</g>
<!-- place_pending&#45;&gt;place_draft -->
<g id="edge3" class="edge">
<title>place_pending&#45;&gt;place_draft</title>
<path fill="none" stroke="#333333" d="M140.4244,-25.3904C134.0291,-23.8353 127.3649,-22.4799 121.0166,-21.6509 107.3475,-19.8657 103.6691,-19.8657 90,-21.6509 85.338,-22.2597 80.5056,-23.1524 75.7344,-24.1996"/>
<polygon fill="#333333" stroke="#333333" points="75.0685,-22.5574 70.5922,-25.3904 75.8582,-25.9672 75.0685,-22.5574"/>
<text text-anchor="middle" x="105.5083" y="-24.1491" font-family="Arial" font-size="9.00" fill="#000000">edit</text>
</g>
<!-- place_processing -->
<g id="node3" class="node">
<title>place_processing</title>
<ellipse fill="none" stroke="#333333" cx="337.0386" cy="-36" rx="36" ry="36"/>
<text text-anchor="middle" x="337.0386" y="-33.9746" font-family="Arial" font-size="9.00" fill="#000000">processing</text>
</g>
<!-- place_pending&#45;&gt;place_processing -->
<g id="edge4" class="edge">
<title>place_pending&#45;&gt;place_processing</title>
<path fill="none" stroke="#333333" d="M211.3775,-36C236.3935,-36 269.6703,-36 295.6953,-36"/>
<polygon fill="#333333" stroke="#333333" points="295.7991,-37.7501 300.799,-36 295.799,-34.2501 295.7991,-37.7501"/>
<text text-anchor="middle" x="256.0276" y="-39.1491" font-family="Arial" font-size="9.00" fill="#000000">start_process</text>
</g>
<!-- place_available -->
<g id="node4" class="node">
<title>place_available</title>
<ellipse fill="none" stroke="#333333" cx="476.5518" cy="-88" rx="36" ry="36"/>
<text text-anchor="middle" x="476.5518" y="-85.9746" font-family="Arial" font-size="9.00" fill="#000000">available</text>
</g>
<!-- place_processing&#45;&gt;place_available -->
<g id="edge5" class="edge">
<title>place_processing&#45;&gt;place_available</title>
<path fill="none" stroke="#333333" d="M370.8108,-48.5877C391.0535,-56.1327 416.8635,-65.7527 437.9164,-73.5996"/>
<polygon fill="#333333" stroke="#333333" points="437.3106,-75.2414 442.607,-75.3479 438.533,-71.9618 437.3106,-75.2414"/>
<text text-anchor="middle" x="406.7952" y="-69.1491" font-family="Arial" font-size="9.00" fill="#000000">process</text>
</g>
<!-- place_errored -->
<g id="node8" class="node">
<title>place_errored</title>
<ellipse fill="none" stroke="#333333" cx="1358.7275" cy="-66" rx="36" ry="36"/>
<text text-anchor="middle" x="1358.7275" y="-63.9746" font-family="Arial" font-size="9.00" fill="#000000">errored</text>
</g>
<!-- place_processing&#45;&gt;place_errored -->
<g id="edge6" class="edge">
<title>place_processing&#45;&gt;place_errored</title>
<path fill="none" stroke="#333333" d="M372.7517,-29.6304C400.8616,-25.1685 441.0791,-20 476.5518,-20 476.5518,-20 476.5518,-20 1216.7007,-20 1253.8198,-20 1293.8571,-34.3964 1321.9305,-47.0816"/>
<polygon fill="#333333" stroke="#333333" points="1321.4056,-48.7662 1326.6797,-49.2628 1322.8664,-45.5856 1321.4056,-48.7662"/>
<text text-anchor="middle" x="838.1206" y="-23.1491" font-family="Arial" font-size="9.00" fill="#000000">fail</text>
</g>
<!-- place_ready -->
<g id="node5" class="node">
<title>place_ready</title>
<ellipse fill="none" stroke="#333333" cx="613.0723" cy="-99" rx="36" ry="36"/>
<text text-anchor="middle" x="613.0723" y="-96.9746" font-family="Arial" font-size="9.00" fill="#000000">ready</text>
</g>
<!-- place_available&#45;&gt;place_ready -->
<g id="edge7" class="edge">
<title>place_available&#45;&gt;place_ready</title>
<path fill="none" stroke="#333333" d="M512.7783,-90.9189C530.9741,-92.385 553.0973,-94.1676 571.9312,-95.6851"/>
<polygon fill="#333333" stroke="#333333" points="572.0257,-97.4483 577.1501,-96.1056 572.3069,-93.9596 572.0257,-97.4483"/>
<text text-anchor="middle" x="544.812" y="-97.1491" font-family="Arial" font-size="9.00" fill="#000000">publish</text>
</g>
<!-- place_enabling -->
<g id="node6" class="node">
<title>place_enabling</title>
<ellipse fill="none" stroke="#333333" cx="770.6074" cy="-99" rx="36" ry="36"/>
<text text-anchor="middle" x="770.6074" y="-96.9746" font-family="Arial" font-size="9.00" fill="#000000">enabling</text>
</g>
<!-- place_ready&#45;&gt;place_enabling -->
<g id="edge9" class="edge">
<title>place_ready&#45;&gt;place_enabling</title>
<path fill="none" stroke="#333333" d="M649.214,-99C673.0448,-99 704.3248,-99 729.1638,-99"/>
<polygon fill="#333333" stroke="#333333" points="729.3614,-100.7501 734.3614,-99 729.3614,-97.2501 729.3614,-100.7501"/>
<text text-anchor="middle" x="691.8398" y="-102.1491" font-family="Arial" font-size="9.00" fill="#000000">start_enable</text>
</g>
<!-- place_enabled -->
<g id="node7" class="node">
<title>place_enabled</title>
<ellipse fill="none" stroke="#333333" cx="905.6338" cy="-130" rx="36" ry="36"/>
<text text-anchor="middle" x="905.6338" y="-127.9746" font-family="Arial" font-size="9.00" fill="#000000">enabled</text>
</g>
<!-- place_enabling&#45;&gt;place_enabled -->
<g id="edge10" class="edge">
<title>place_enabling&#45;&gt;place_enabled</title>
<path fill="none" stroke="#333333" d="M805.7315,-107.064C823.8734,-111.2291 846.1046,-116.333 864.986,-120.6679"/>
<polygon fill="#333333" stroke="#333333" points="864.9516,-122.4555 870.2165,-121.8687 865.7349,-119.0442 864.9516,-122.4555"/>
<text text-anchor="middle" x="838.1206" y="-120.1491" font-family="Arial" font-size="9.00" fill="#000000">enable</text>
</g>
<!-- place_enabling&#45;&gt;place_errored -->
<g id="edge11" class="edge">
<title>place_enabling&#45;&gt;place_errored</title>
<path fill="none" stroke="#333333" d="M804.4582,-85.9575C831.4375,-76.7335 870.401,-66 905.6338,-66 905.6338,-66 905.6338,-66 1216.7007,-66 1250.5912,-66 1289.0306,-66 1317.3652,-66"/>
<polygon fill="#333333" stroke="#333333" points="1317.5349,-67.7501 1322.5349,-66 1317.5348,-64.2501 1317.5349,-67.7501"/>
<text text-anchor="middle" x="1052.165" y="-69.1491" font-family="Arial" font-size="9.00" fill="#000000">fail</text>
</g>
<!-- place_unsuitable -->
<g id="node9" class="node">
<title>place_unsuitable</title>
<ellipse fill="none" stroke="#333333" cx="1052.165" cy="-130" rx="36" ry="36"/>
<text text-anchor="middle" x="1052.165" y="-127.9746" font-family="Arial" font-size="9.00" fill="#000000">unsuitable</text>
</g>
<!-- place_enabled&#45;&gt;place_unsuitable -->
<g id="edge12" class="edge">
<title>place_enabled&#45;&gt;place_unsuitable</title>
<path fill="none" stroke="#333333" d="M941.855,-130C962.8039,-130 989.2361,-130 1010.9744,-130"/>
<polygon fill="#333333" stroke="#333333" points="1011.1069,-131.7501 1016.1068,-130 1011.1068,-128.2501 1011.1069,-131.7501"/>
<text text-anchor="middle" x="978.8994" y="-133.1491" font-family="Arial" font-size="9.00" fill="#000000">unpublish</text>
</g>
<!-- place_suspending -->
<g id="node10" class="node">
<title>place_suspending</title>
<ellipse fill="none" stroke="#333333" cx="1216.7007" cy="-130" rx="36" ry="36"/>
<text text-anchor="middle" x="1216.7007" y="-127.9746" font-family="Arial" font-size="9.00" fill="#000000">suspending</text>
</g>
<!-- place_unsuitable&#45;&gt;place_suspending -->
<g id="edge13" class="edge">
<title>place_unsuitable&#45;&gt;place_suspending</title>
<path fill="none" stroke="#333333" d="M1088.2731,-130C1113.9917,-130 1148.6092,-130 1175.4231,-130"/>
<polygon fill="#333333" stroke="#333333" points="1175.6769,-131.7501 1180.6769,-130 1175.6768,-128.2501 1175.6769,-131.7501"/>
<text text-anchor="middle" x="1134.4329" y="-133.1491" font-family="Arial" font-size="9.00" fill="#000000">start_suspend</text>
</g>
<!-- place_suspending&#45;&gt;place_errored -->
<g id="edge15" class="edge">
<title>place_suspending&#45;&gt;place_errored</title>
<path fill="none" stroke="#333333" d="M1249.6415,-115.1563C1270.9096,-105.5724 1298.6463,-93.0737 1320.8286,-83.078"/>
<polygon fill="#333333" stroke="#333333" points="1321.6338,-84.6347 1325.4734,-80.985 1320.1959,-81.4437 1321.6338,-84.6347"/>
<text text-anchor="middle" x="1287.7141" y="-108.1491" font-family="Arial" font-size="9.00" fill="#000000">fail</text>
</g>
<!-- place_suspended -->
<g id="node11" class="node">
<title>place_suspended</title>
<ellipse fill="none" stroke="#333333" cx="1358.7275" cy="-171" rx="36" ry="36"/>
<text text-anchor="middle" x="1358.7275" y="-168.9746" font-family="Arial" font-size="9.00" fill="#000000">suspended</text>
</g>
<!-- place_suspending&#45;&gt;place_suspended -->
<g id="edge14" class="edge">
<title>place_suspending&#45;&gt;place_suspended</title>
<path fill="none" stroke="#333333" d="M1251.4444,-140.0297C1271.8198,-145.9117 1297.6407,-153.3656 1318.8448,-159.4867"/>
<polygon fill="#333333" stroke="#333333" points="1318.5611,-161.2262 1323.8503,-160.9317 1319.5319,-157.8635 1318.5611,-161.2262"/>
<text text-anchor="middle" x="1287.7141" y="-158.1491" font-family="Arial" font-size="9.00" fill="#000000">suspend</text>
</g>
<!-- place_suspended&#45;&gt;place_ready -->
<g id="edge8" class="edge">
<title>place_suspended&#45;&gt;place_ready</title>
<path fill="none" stroke="#333333" d="M1323.6709,-179.8924C1295.0806,-186.3646 1253.5442,-194 1216.7007,-194 770.6074,-194 770.6074,-194 770.6074,-194 719.5628,-194 670.8518,-156.9721 641.4562,-129.1504"/>
<polygon fill="#333333" stroke="#333333" points="642.4339,-127.6631 637.6151,-125.4628 640.01,-130.188 642.4339,-127.6631"/>
<text text-anchor="middle" x="978.8994" y="-197.1491" font-family="Arial" font-size="9.00" fill="#000000">publish</text>
</g>
</g>
</svg>
